<?xml version="1.0" encoding="utf-8"?>
<!-- Generator: Adobe Illustrator 16.0.0, SVG Export Plug-In . SVG Version: 6.00 Build 0)  -->
<!DOCTYPE svg PUBLIC "-//W3C//DTD SVG 1.1//EN" "http://www.w3.org/Graphics/SVG/1.1/DTD/svg11.dtd">
<svg version="1.1" id="Layer_1" xmlns="http://www.w3.org/2000/svg" xmlns:xlink="http://www.w3.org/1999/xlink" x="0px" y="0px"
	 width="1136.637px" height="900px" viewBox="0 -128.409 1136.637 900" enable-background="new 0 -128.409 1136.637 900"
	 xml:space="preserve">
<rect id="backgroundrect" fill="none" width="1136.637" height="643.182"/>
<title>status update</title>
<g>
	<path opacity="0.15" fill="#050505" d="M183.05,479.241c12.25,6.354,31.099,6.468,42.083,0.264L575.31,281.706
		c10.982-6.221,9.953-16.388-2.306-22.729l-49.933-25.866c-12.259-6.35-31.116-6.466-42.091-0.257L130.794,430.652
		c-10.976,6.209-9.943,16.383,2.304,22.732L183.05,479.241z"/>
	<path opacity="0.15" fill="#050505" d="M918.544,398.844c-9.439,4.896-23.966,4.986-32.429,0.2L616.27,246.621
		c-8.464-4.792-7.67-12.627,1.776-17.514l38.478-19.932c9.448-4.894,23.98-4.982,32.437-0.198l269.852,152.42
		c8.459,4.785,7.663,12.627-1.775,17.522L918.544,398.844z"/>
	<g>
		<g>
			<g>
				<g>
					<path fill="#55C3FE" d="M577.255,287.086h0.009V271.49l-11.202,5.639l-19.673-11.366c-6.406-3.698-16.802-3.698-23.204,0
						L325.46,379.922l-11.263-5.491v15.414l0.005-0.007c-0.251,2.602,1.321,5.248,4.757,7.232l26.108,15.078
						c6.401,3.693,16.793,3.693,23.199,0l204.221-117.914C575.89,292.27,577.468,289.659,577.255,287.086z"/>
					<path fill="#179ECC" d="M325.46,379.922l-11.263-5.491v15.414l0.005-0.007c-0.251,2.602,1.321,5.248,4.757,7.232l26.108,15.078
						c3.118,1.794,7.183,2.703,11.277,2.751v-52.808L325.46,379.922z"/>
					<path fill="#97DFFF" d="M345.067,395.675c6.401,3.704,16.793,3.704,23.199,0.005l204.221-117.907
						c6.406-3.708,6.406-9.7,0-13.396l-26.099-15.073c-6.406-3.7-16.802-3.7-23.204,0L318.959,367.21
						c-6.402,3.7-6.402,9.696,0,13.397L345.067,395.675z"/>
				</g>
				<path fill="#35AFE5" d="M643.123-97.861l-13.363-7.623c-0.274-0.218-0.578-0.394-0.908-0.52l-0.01-0.004l0,0
					c-1.289-0.492-2.952-0.282-4.767,0.765L239.737,116.655c-4.122,2.379-7.458,8.167-7.458,12.924v295.145
					c0,2.381,0.834,4.057,2.18,4.83c0.204,0.115,0.413,0.205,0.625,0.28l13.292,7.642l2.763-14.382l-3.966,1.649L624.075,207.14
					c4.126-2.389,7.467-8.169,7.467-12.931V-89.815L643.123-97.861z"/>
				<path fill="#97DFFF" d="M629.76-105.484c-0.274-0.218-0.578-0.394-0.908-0.52l-0.01-0.004l0,0
					c-1.289-0.492-2.952-0.282-4.767,0.765L239.737,116.655c-1.787,1.033-3.412,2.729-4.696,4.686l256.922,162.073l132.112-76.274
					c4.126-2.389,7.467-8.169,7.467-12.931V-89.815l11.581-8.046L629.76-105.484z"/>
				<path fill="#55C3FE" d="M645.354,202.098c0.005,4.757-3.339,10.542-7.457,12.926L253.554,436.918
					c-4.122,2.374-7.458,0.453-7.458-4.304V137.466c0-4.762,3.336-10.545,7.458-12.927L637.896-97.357
					c4.118-2.381,7.457-0.451,7.457,4.307V202.098z"/>
				<polygon fill="#F0FBFF" points="638.105,180.477 253.336,402.622 253.336,136.942 638.105,-85.202 				"/>
				<polygon fill="#FFFFFF" points="634.338,-83.028 634.338,177.548 253.336,397.516 253.336,402.622 638.105,180.477 
					638.105,-85.202 				"/>
			</g>
		</g>
		<g>
			<g>
				<polygon fill="#CBE9F4" points="462.984,69.042 347.181,135.9 347.181,129.264 462.984,62.406 				"/>
				<polygon fill="#CBE9F4" points="462.984,80.892 282.145,185.299 282.145,178.667 462.984,74.258 				"/>
				<polygon fill="#CBE9F4" points="462.984,92.745 282.145,197.152 282.145,190.518 462.984,86.111 				"/>
				<polygon fill="#CBE9F4" points="462.984,104.596 282.145,209.003 282.145,202.369 462.984,97.961 				"/>
				<polygon fill="#CBE9F4" points="462.984,116.447 282.145,220.854 282.145,214.221 462.984,109.814 				"/>
				<polygon fill="#CBE9F4" points="462.984,128.298 282.145,232.706 282.145,226.073 462.984,121.665 				"/>
				<polygon fill="#CBE9F4" points="462.984,152.003 347.181,218.86 347.181,212.224 462.984,145.367 				"/>
				<polygon fill="#CBE9F4" points="462.984,163.854 282.145,268.261 282.145,261.626 462.984,157.219 				"/>
				<polygon fill="#CBE9F4" points="462.984,175.705 282.145,280.112 282.145,273.479 462.984,169.07 				"/>
				<polygon fill="#CBE9F4" points="462.984,187.558 282.145,291.964 282.145,285.327 462.984,180.923 				"/>
				<polygon fill="#CBE9F4" points="462.984,199.41 282.145,303.815 282.145,297.182 462.984,192.774 				"/>
				<polygon fill="#CBE9F4" points="368.861,265.602 282.145,315.669 282.145,309.031 368.861,258.965 				"/>
			</g>
		</g>
	</g>
	<g>
		<g>
			<g>
				<polygon fill="#144682" points="1051.24,321.831 845.156,202.852 805.321,-77.904 845.156,-100.669 1051.24,18.313 				"/>
				<polygon fill="#FFFFFF" points="1040.98,316.548 1006.41,334.206 806.217,-67.625 844.248,-89.356 1040.98,24.229 				"/>
				<polygon fill="#2D5CA0" points="1011.404,344.596 805.321,225.615 805.321,-77.904 1011.404,41.077 				"/>
			</g>
		</g>
		<g>
			<g>
				<polygon fill="#1890C6" points="1004.804,348.691 798.716,229.713 758.879,-51.042 798.716,-73.807 1004.804,45.175 				"/>
				<polygon fill="#FFFFFF" points="994.545,343.405 959.974,361.068 759.78,-40.762 797.812,-62.494 994.545,51.091 				"/>
				<polygon fill="#55C3FE" points="964.963,371.456 758.879,252.477 758.879,-51.042 964.963,67.939 				"/>
				<polygon fill="#E8E8E8" points="758.879,252.477 758.879,-51.042 964.963,67.939 				"/>
			</g>
			<polygon fill="#EA4266" points="811.471,-38.065 793.943,-47.969 793.943,-85.263 802.705,-72.819 811.471,-78.585 			"/>
		</g>
	</g>
	<g opacity="0.2">
		<path fill="#BCBCBC" d="M569.331,133.66c0.349,0.785,0.589,1.25,0.69,1.327C570.378,135.244,569.789,134.339,569.331,133.66z"/>
		<path opacity="0.15" fill="#050505" d="M607.03,132.988c3.287-3.883,5.909-12.819-6.478-18.129
			c-12.386-5.31-15.554-9.527-15.554-9.527s-3.8,3.895-5.657,9.044c-1.031,2.861,2.087,3.604,2.087,3.604l0.01,0.005
			c-0.643,0.221-1.301,0.524-1.972,0.945c-0.388-0.691-0.696-1.325-0.893-1.884c-3.313-9.273-1.234-28.416-1.234-28.416
			s-0.896,0.168-2.191,0.488c-0.49-0.937-0.945-2.546-0.408-5.081c0.01-0.033,0.014-0.068,0.021-0.101l1.874-1.575L575.276,81
			c0.498-3.448,0.63-6.515,0.63-6.515l-8.383-3.061c0,0-1.076,0.002-1.656,0.167l-1.26-1.262l-3.278-1.458l1.092,3.428l2.104,2.437
			c-0.473-0.176-0.812,0.572-0.864,2.664c-0.071,2.99-0.73,5.761,1.859,8.166c1.507,1.4,2.281,4.03,2.668,5.989
			c-1.178,0.616-2.154,1.321-2.668,2.113c3.809,14.307,1.161,33.878,3.715,39.769c0.235,0.305,0.613,0.808,1.141,1.507
			c-0.723,3.681-0.242,8.259,0.771,11.16c2.771,2.256,5.985,0.675,5.985,0.675l-23.685,10.494c-3.336,1.297-6.289,2.719-8.847,4.155
			l-15.165-26.847l-35.183,19.871l11.291,19.989c-0.3,0.685-4.231,10.242,2.677,22.889c-0.717,0.521-1.333,1.082-1.755,1.678
			c6.771,23.935,18.065,32.399,25.694,32.778c-1.953,6.286-3.822,12.514-4.595,16.844c0.924,0.464,1.838,0.897,2.753,1.315
			c-2.27,15.084-5.508,35.688-7.35,43.133c-0.281,1.121,0.1,25.811,0.396,47.031c0.026,1.934,28.616,29.374,28.642,31.23
			l12.478,1.331l-25.376-41.649l5.08-27.082c0.685-1.604,2.043-4.121,3.72-7.07c-0.021,2.658,1.128,14.447,2.474,27.643
			c0.718,7.092,36.8,26.131,38.277,28.652h13.322c0-2.776-35.282-29.273-34.769-38.37c0.465-8.254,0.815-14.29,0.877-14.86
			c1.845-17.295,17.707-32.195,18.648-35.874c0.964-3.774,1.374-7.914,1.48-11.916c3.729-1.455,5.639-2.676,5.639-2.676
			s-2.339-20.486-6.18-27.529c-3.84-7.05-0.509-21.723,4.521-34.223c5.023-12.509,2.185-31.518-1.708-33.085
			c-0.41-0.165-0.848-0.313-1.301-0.448c-1.945-1.823,16.608-5.905,12.111-10.361C605.108,139.239,608.999,134.622,607.03,132.988z
			 M565.52,79.153c-0.315-0.979,0.394-2.29-0.25-3.551l1.941,2.251C566.879,79.024,565.756,79.891,565.52,79.153z M515.501,193.898
			c0,0,0.073-0.64,0.137-1.583l0.737,1.303C516.117,193.696,515.828,193.789,515.501,193.898z M529.214,212.043
			c-1.971,1.731-5.867-5.51-8.629-11.492l9.699-5.478C531.789,201.966,532.258,209.365,529.214,212.043z"/>
	</g>
	<g>
		<g>
			<linearGradient id="SVGID_1_" gradientUnits="userSpaceOnUse" x1="563.0898" y1="79.189" x2="578.4116" y2="84.5138">
				<stop  offset="0" style="stop-color:#FFE2C4"/>
				<stop  offset="1" style="stop-color:#FFB870"/>
			</linearGradient>
			<path fill="url(#SVGID_1_)" d="M576.953,88.708c0,0-2.113-1.678-1.165-6.123c0.944-4.449,1.165-9.552,1.165-9.552l-8.385-3.062
				c0,0-1.824,0-2.004,0.365c-0.183,0.365,0.912,2.989,1.639,4.665c0.73,1.678-1.31,3.719-1.639,2.7
				c-0.326-1.022,0.472-2.407-0.326-3.72c-0.805-1.313-1.46-1.02-1.531,1.969c-0.074,2.989-0.732,5.759,1.857,8.166
				c2.59,2.406,3.025,8.457,3.025,8.457L576.953,88.708z"/>
			<path fill="#FF669D" d="M624.388,155.399c0,0-31.082-28.712-34.393-37.985c-3.31-9.274-11.61-30.237-11.61-30.237
				s-9.727,1.813-11.82,5.038c4.399,16.53,14.044,42.536,14.882,43.139c0.838,0.605-3.564-5.241,0.838,0.605
				c4.401,5.846,20.96,27.819,22.638,28.423C606.597,164.988,624.388,155.399,624.388,155.399z"/>
			<polygon fill="#FFFFFF" points="565.651,68.879 577.681,80.908 574.473,83.603 563.465,70.846 562.371,67.42 			"/>
		</g>
		<g>
			<path opacity="0.15" fill="#050505" d="M541.958,385.023c15.097,8.719,39.569,8.719,54.665,0
				c15.094-8.709,15.097-22.844,0-31.553c-15.096-8.714-39.568-8.714-54.665,0C526.861,362.18,526.861,376.314,541.958,385.023z"/>
			<g opacity="0.2">
				<path opacity="0.15" fill="#050505" d="M748.977,395.414c-30.449-17.574-79.809-17.574-110.258,0
					c-30.452,17.567-30.452,46.076,0,63.645c1.706,0.985,3.49,1.896,5.309,2.772c-5.516,1.121-10.703,2.925-15.115,5.472
					c-15.762,9.094-15.762,23.851,0,32.944c15.762,9.103,41.313,9.103,57.075,0c13.168-7.598,15.293-19.141,6.452-28.04
					c20.418,0.215,40.955-4.15,56.537-13.148C779.423,441.49,779.428,412.981,748.977,395.414z"/>
				<path opacity="0.15" fill="#050505" d="M615.112,504.05c-15.763-9.099-41.313-9.099-57.075,0
					c-3.71,2.143-6.515,4.602-8.479,7.224c-0.062-0.035-0.116-0.073-0.178-0.109c-30.449-17.574-79.809-17.574-110.258,0
					c-30.451,17.567-30.451,46.076,0,63.645c30.449,17.584,79.809,17.584,110.258,0c15.538-8.965,23.125-20.778,22.809-32.534
					c14.404,3.172,31.313,1.423,42.923-5.281C630.871,527.9,630.873,513.143,615.112,504.05z"/>
			</g>
			<g>
				<path fill="#2D2D2D" d="M564.97,370.225c0,0,0.894,6.818,0.28,8.382c-0.617,1.568-4.274,1.232-5.642,0.849
					c-4.497-1.269-15.308-6.629-15.033-11.079c0.107-1.809,2.843-1.629,7.248,0.423c4.409,2.062,6.896,1.711,7.468,0.431
					C559.857,367.951,564.97,370.225,564.97,370.225z"/>
				<path fill="#2D2D2D" d="M596.532,367.003c0,0,0.887,6.823,0.271,8.383c-0.608,1.567-4.266,1.236-5.639,0.848
					c-4.489-1.274-15.308-6.629-15.032-11.077c0.11-1.812,2.845-1.641,7.246,0.42c4.41,2.062,6.9,1.706,7.468,0.432
					C591.417,364.724,596.532,367.003,596.532,367.003z"/>
				<g>
					<g>
						<path fill="#162B87" d="M598.153,367.192c0.412-6.032,3.631-65.404,3.833-67.256c1.846-17.295,17.707-32.195,18.648-35.874
							c3.421-13.378,0-31.386,0-31.386l-31.23,1.307c0,0-7.253,29.495-7.599,62.88c-0.06,6.258,6.498,63.956,6.553,70.053
							L598.153,367.192z"/>
						<path fill="#1B2E9B" d="M578.086,303.942c2.665-6.23,15.432-26.224,18.113-32.094c12.541-23.681,9.575-37.626,9.575-37.626
							l-39.022-1.545c0,0-6.847,48.125-9.885,60.404c-0.49,1.957,1.035,75.889,0.618,77.504l7.958,0.758L578.086,303.942z"/>
						<polygon fill="#E8E8E8" points="589.447,180.806 554.264,200.677 528.15,154.454 563.333,134.583 						"/>
						
							<linearGradient id="SVGID_2_" gradientUnits="userSpaceOnUse" x1="441.9448" y1="167.4922" x2="501.416" y2="167.4922" gradientTransform="matrix(1 0 0 1 87.082 0)">
							<stop  offset="0" style="stop-color:#FFFFFF"/>
							<stop  offset="0.7168" style="stop-color:#F0F0F0"/>
							<stop  offset="1" style="stop-color:#E8E8E8"/>
						</linearGradient>
						<polygon fill="url(#SVGID_2_)" points="529.027,154.639 554.413,199.589 588.498,180.34 563.103,135.395 						"/>
						
							<linearGradient id="SVGID_3_" gradientUnits="userSpaceOnUse" x1="462.2588" y1="135.2822" x2="493.2319" y2="135.2822" gradientTransform="matrix(0.9446 0.3283 -0.3283 0.9446 189.8272 -145.5089)">
							<stop  offset="0" style="stop-color:#FFE2C4"/>
							<stop  offset="1" style="stop-color:#FFB870"/>
						</linearGradient>
						<path fill="url(#SVGID_3_)" d="M598.656,118.277c0,0-5.81-2.291-10.603,3.577c-0.669,0.828-1.152,1.836-1.214,2.9
							c-0.137,2.051-1.861,4.634-3.353,6.458c-2.788,3.405-2.374,11.092-0.917,15.26c2.771,2.257,5.985,0.675,5.985,0.675
							l-1.248,10.453l20.195-2.406c0,0-2.262-5.108,2.638-13.102c4.893-7.996,5.689-12.567,1.051-17.41
							C606.55,119.836,598.656,118.277,598.656,118.277"/>
						<path fill="#70380F" d="M596.422,105.7c0,0,3.167,4.217,15.555,9.527c12.387,5.31,9.763,14.246,6.478,18.129
							c3.268,2.713-9.618,13.654-11.466,19.008c-8.101,0.058-12.482-5.208-12.482-5.208s-1.113-5.125,2.136-9.313
							c3.257-4.188,1.888-9.831-0.444-9.207c-0.506,0.14-3.692,7.458-4.039,7.42c-0.21-0.026-0.793-0.234-0.94-0.326
							c-0.523-0.32,0.863-1.996,1.398-5.448c0.249-1.648-0.652-5.611-0.246-6.444c0.552-1.146,3.047-4.085,3.047-4.085l-2.566-1.404
							c0,0-3.116-0.741-2.087-3.604C592.622,109.597,596.422,105.7,596.422,105.7"/>
						<path fill="#FF3E7A" d="M565.475,171.352c0,0,7.378-8.696,22.776-14.436c7.289-2.72,15.408-3.637,15.408-3.637
							s13.859-1.407,20.729,1.354c3.892,1.567,6.73,20.576,1.707,33.085c-5.029,12.5-8.361,27.173-4.518,34.223
							c3.842,7.043,6.177,27.529,6.177,27.529s-5.783,3.72-16.987,5.897c0,0-3.541-18.399-4.001-18.399
							c-0.242,0-1.846,19.532-1.846,19.532c-11.626,1.464-26.801,0.514-43.454-7.869c1.646-9.257,8.313-27.181,10.083-35.821
							C573.328,204.173,565.475,171.352,565.475,171.352"/>
						
							<linearGradient id="SVGID_4_" gradientUnits="userSpaceOnUse" x1="450.96" y1="186.8467" x2="463.8667" y2="186.8467" gradientTransform="matrix(1 0 0 1 87.082 0)">
							<stop  offset="0" style="stop-color:#FFE2C4"/>
							<stop  offset="1" style="stop-color:#FFB870"/>
						</linearGradient>
						<path fill="url(#SVGID_4_)" d="M549.402,193.898c0,0,0.542-4.732,0-7.656c-0.538-2.925,0.606-4.599,1.338-5.639
							c0.732-1.046-0.521-3.865-2.817-1.356c-2.303,2.505-2.611,5.464-2.611,5.464l-5.84-10.337c0,0-4.886,10.517,3.402,24.332
							C548.3,201.492,549.402,193.898,549.402,193.898z"/>
						<path fill="#FF669D" d="M562.08,187.488c-1.981-5.813-0.571-12.396,3.893-16.622c0.923-0.885,1.98-1.658,3.186-2.25
							c7.22-3.56,12.197,2.542,12.481,15.664c0.279,13.123-1.087,32.289-8.648,44.47c-4.627,7.001-23.106,3.925-32.628-29.738
							c2.41-3.417,10.996-5.716,10.996-5.716s8.499,21.605,11.753,18.748C567.354,208.313,564.785,195.406,562.08,187.488"/>
					</g>
				</g>
			</g>
		</g>
	</g>
	<g>
		<path fill="#35AFE5" d="M697.568,81.496l7.708-4.397c0.157-0.125,0.332-0.228,0.524-0.299l0.004-0.003l0,0
			c0.747-0.283,1.706-0.162,2.751,0.442L930.25,205.234c2.375,1.371,4.302,4.71,4.302,7.454v170.246c0,1.374-0.48,2.341-1.258,2.785
			c-0.118,0.067-0.236,0.119-0.359,0.162l-7.668,4.409l-1.595-8.294l2.29,0.949L708.556,257.427
			c-2.382-1.377-4.308-4.712-4.308-7.458V86.137L697.568,81.496z"/>
		<path fill="#97DFFF" d="M705.276,77.099c0.157-0.125,0.332-0.228,0.524-0.299l0.004-0.003l0,0
			c0.747-0.283,1.706-0.162,2.751,0.442L930.25,205.234c1.03,0.595,1.969,1.573,2.708,2.702l-148.196,93.486l-76.206-43.996
			c-2.382-1.377-4.308-4.712-4.308-7.458V86.137l-6.68-4.641L705.276,77.099z"/>
		<path fill="#55C3FE" d="M696.28,254.52c-0.002,2.745,1.926,6.081,4.303,7.457l221.696,127.995c2.379,1.366,4.303,0.26,4.303-2.485
			V217.237c0-2.746-1.924-6.081-4.303-7.455L700.583,81.787c-2.377-1.373-4.303-0.259-4.303,2.484V254.52z"/>
		<polygon fill="#E6F7FF" points="700.463,242.047 922.405,370.183 922.405,216.936 700.463,88.799 		"/>
		<g>
			<g>
				<polygon fill="#CBE9F4" points="720.378,139.408 787.538,178.182 787.538,174.333 720.378,135.56 				"/>
				<polygon fill="#CBE9F4" points="720.378,146.281 825.253,206.831 825.253,202.984 720.378,142.433 				"/>
				<polygon fill="#CBE9F4" points="720.378,153.155 825.253,213.706 825.253,209.857 720.378,149.307 				"/>
				<polygon fill="#CBE9F4" points="720.378,160.027 825.253,220.578 825.253,216.731 720.378,156.179 				"/>
				<polygon fill="#CBE9F4" points="720.378,166.901 825.253,227.451 825.253,223.604 720.378,163.053 				"/>
				<polygon fill="#CBE9F4" points="720.378,173.774 825.253,234.325 825.253,230.478 720.378,169.926 				"/>
				<polygon fill="#CBE9F4" points="720.378,187.521 787.538,226.295 787.538,222.445 720.378,183.672 				"/>
				<polygon fill="#CBE9F4" points="720.378,194.395 825.253,254.944 825.253,251.096 720.378,190.546 				"/>
				<polygon fill="#CBE9F4" points="720.378,201.267 825.253,261.817 825.253,257.969 720.378,197.419 				"/>
				<polygon fill="#CBE9F4" points="720.378,208.141 825.253,268.691 825.253,264.843 720.378,204.293 				"/>
				<polygon fill="#CBE9F4" points="720.378,215.015 825.253,275.566 825.253,271.716 720.378,211.166 				"/>
				<polygon fill="#CBE9F4" points="774.965,253.403 825.253,282.439 825.253,278.589 774.965,249.553 				"/>
			</g>
		</g>
		<polygon fill="#FFFFFF" points="702.635,90.052 702.635,240.36 922.405,367.24 922.405,370.183 700.463,242.047 700.463,88.799 		
			"/>
	</g>
	<g>
		<polygon fill="#55C3FE" points="565.375,453.005 565.375,517.728 573.29,534.78 602.833,539.354 624.461,526.864 624.461,462.146 
					"/>
		<polygon fill="#098EB2" points="589.232,456.697 565.375,453.005 565.375,517.728 573.29,534.78 589.232,537.25 		"/>
		<polygon fill="#179ECC" points="573.29,470.063 573.29,534.78 602.833,539.354 602.833,474.634 		"/>
		<polygon fill="#97DFFF" points="587,440.52 616.545,445.089 624.461,462.146 602.833,474.634 573.29,470.063 565.375,453.005 		
			"/>
	</g>
	<g>
		<g>
			<path fill="#2B2B2B" d="M501.956,524.031c0,0,1.5,6.71,1.191,8.78c-0.308,2.068-1.402,5.677-10.025,4.306
				c-8.626-1.37-21.428-5.059-23.291-8.765c-1.857-3.698,4.188-5.536,12.627-2.934c4.986,1.426,9.092-1.778,9.092-1.778
				L501.956,524.031z"/>
			<path fill="#8E5428" d="M537.061,463.837c-16.698-9.841-44.188-24.163-47.794-14.155c-5.223,14.499-0.065,74.599-0.065,74.599
				s7.528,4.584,14.543,0.784c1.158-23.967,1.919-52.07,1.919-52.07s14.639,17.312,31.396,23.571V463.837z"/>
		</g>
		<g>
			<polygon fill="#55C3FE" points="495.988,493.338 495.988,558.062 503.904,575.114 533.445,579.688 555.074,567.198 
				555.074,502.479 			"/>
			<polygon fill="#098EB2" points="519.846,497.029 495.988,493.338 495.988,558.062 503.904,575.114 519.846,577.583 			"/>
			<polygon fill="#179ECC" points="503.904,510.397 503.904,575.114 533.445,579.688 533.445,514.967 			"/>
			<polygon fill="#97DFFF" points="517.614,480.853 547.158,485.424 555.074,502.479 533.445,514.967 503.904,510.397 
				495.988,493.338 			"/>
		</g>
		<g>
			<polygon fill="#E6F7FF" points="452.907,412.72 492.28,460.482 513.255,454.417 533.725,429.754 502.387,384.063 
				481.261,402.864 			"/>
			<polygon fill="#DFECF2" points="452.907,412.72 492.28,460.482 513.255,454.417 481.261,402.864 			"/>
			<path fill="#2B2B2B" d="M495.787,487.948c0,0-0.718,6.455-1.538,8.195c-0.818,1.739-2.681,4.599-9.012,0.614
				c-6.327-3.985-15.26-11.371-15.669-15.259c-0.409-3.892,4.814-3.584,10.651,1.434c3.482,2.865,7.579,1.332,7.579,1.332
				L495.787,487.948z"/>
			<g>
				<path fill="#2B2B2B" d="M476.069,542.989c0,0,2.029,6.57,1.887,8.657c-0.142,2.089-0.946,5.772-9.65,5.091
					c-8.708-0.679-21.764-3.338-23.915-6.882c-2.146-3.539,3.734-5.852,12.353-3.929c5.084,1.022,8.921-2.498,8.921-2.498
					L476.069,542.989z"/>
				<path fill="#A86E3F" d="M519.692,487.086c0,0-58.137-32.074-62.191-17.201c-4.053,14.87,5.873,74.37,5.873,74.37
					s7.871,3.969,14.56-0.377c-0.754-23.983-2.232-52.059-2.232-52.059s23.126,23.318,43.693,22.385
					c20.567-0.929,46.214-19.721,31.534-43.516C533.566,469.399,519.692,487.086,519.692,487.086z"/>
			</g>
			<g>
				<path fill="#1FB276" d="M533.09,408.216c0,0-12.559,4.403-17.184,16.302c-4.625,11.896-9.95,36.69-9.95,36.69l-1.581,8.396
					c0,0-6.858,29.564,39.696,19.6c18.792-4.025,12.223-7.506,12.664-10.588c0.438-3.085-0.126-10.603,1.706-23.822
					c1.824-13.215,6.117-57.591-17.964-53.846C528.801,404.69,533.09,408.216,533.09,408.216z"/>
				<g>
					
						<linearGradient id="SVGID_5_" gradientUnits="userSpaceOnUse" x1="487.6509" y1="371.8262" x2="514.375" y2="371.8262" gradientTransform="matrix(0.9245 -0.3811 0.3811 0.9245 -81.7569 241.0077)">
						<stop  offset="0" style="stop-color:#FFE2C4"/>
						<stop  offset="1" style="stop-color:#FFB870"/>
					</linearGradient>
					<path fill="url(#SVGID_5_)" d="M513.115,378.744c0,0-0.052,0.107-0.147,0.311c-0.474,1.058-1.9,4.625-1.201,7.846
						c0.831,3.835-3.106,5.458-3.106,5.458s-1.009,1.023,0.846,1.617c1.85,0.59,2.731,1.083,2.731,1.083s1.512,7.308,2.223,8.511
						c0.71,1.206,4.056,1.002,6.852,1.034c2.793,0.022,5.123,4.631,5.387,7.095c8.126-1.854,14.545-8.887,14.545-8.887l-2.642-6.412
						C538.603,396.399,528.61,367.751,513.115,378.744z"/>
					<path fill="#333333" d="M540.171,372.41c-2.393-6.831-10.472-6.18-13.983-6.229c-1.611-0.026-2.07,1.268-4.127,1.012
						c-2.398,4.663-2.343,7.11-6.369,10.425c1.104,1.384-3.118,2.405-3.118,2.405s6.942-2.635,5.596,1.778
						c-1.341,4.406,3.727,12.53,3.727,12.53l2.044,1.473c0,0,0.258-1.603-0.434-4.315c-1.196-5.506,5.399-4.049,5.854-1.13
						c0.455,2.917,3.549,10.425,3.549,10.425s2.544,1.201,6.781-1.831C546.817,394.301,544.457,378.141,540.171,372.41z"/>
				</g>
			</g>
			
				<linearGradient id="SVGID_6_" gradientUnits="userSpaceOnUse" x1="439.8008" y1="438.9229" x2="497.8281" y2="438.9229" gradientTransform="matrix(0.981 -0.1938 0.1938 0.981 -45.3429 116.5036)">
				<stop  offset="0" style="stop-color:#FFE2C4"/>
				<stop  offset="1" style="stop-color:#FFB870"/>
			</linearGradient>
			<path fill="url(#SVGID_6_)" d="M512.952,447.29c0,0-3.352,21.834-5.238,24.23c-4.302-4.901-24.559-23.02-29.462-26.967
				c0-0.063-0.004-0.111-0.004-0.111s-0.349-4.323-1.351-6.837c-0.999-2.52-0.266-4.213,0.203-5.273
				c0.468-1.063-1.146-3.363-2.757-0.718c-1.612,2.646-1.365,5.344-1.365,5.344l-7.043-8.204c0,0-2.351,9.764,6.662,20.337
				c-0.012,0.019-0.042,0.053-0.042,0.053s11.481,15.85,20.48,25.476c9.002,9.626,14.894,16.462,22.646,11.942
				c7.755-4.518,13.192-31.993,13.192-31.993L512.952,447.29z"/>
			<path fill="#58E0A9" d="M509.6,450.665c0,0,5.136-23.252,8.02-27.969c2.883-4.718,14.93-6.07,19.056,3.968
				c4.127,10.036-6.743,30.125-6.743,30.125L509.6,450.665z"/>
		</g>
	</g>
	<g>
		<g>
			<path fill="#2B2B2B" d="M722.312,401.366c0,0,1.499,6.709,1.19,8.779c-0.307,2.071-1.401,5.677-10.025,4.308
				c-8.624-1.368-21.428-5.061-23.289-8.766c-1.858-3.696,4.188-5.534,12.628-2.933c4.984,1.426,9.091-1.777,9.091-1.777
				L722.312,401.366z"/>
			<path fill="#04467C" d="M757.415,341.174c-16.697-9.842-44.188-24.163-47.794-14.157c-5.224,14.499-0.063,74.601-0.063,74.601
				s7.53,4.582,14.543,0.782c1.155-23.968,1.919-52.071,1.919-52.071s14.642,17.314,31.396,23.574V341.174z"/>
		</g>
		<g>
			<polygon fill="#55C3FE" points="704.148,372.339 704.148,437.06 712.064,454.114 741.606,458.687 763.234,446.199 
				763.234,381.479 			"/>
			<polygon fill="#098EB2" points="728.007,376.029 704.148,372.339 704.148,437.06 712.064,454.114 728.007,456.582 			"/>
			<polygon fill="#179ECC" points="712.064,389.396 712.064,454.114 741.606,458.687 741.606,393.967 			"/>
			<polygon fill="#97DFFF" points="725.774,359.853 755.318,364.424 763.234,381.479 741.606,393.967 712.064,389.396 
				704.148,372.339 			"/>
		</g>
		<g>
			<linearGradient id="SVGID_7_" gradientUnits="userSpaceOnUse" x1="733.6367" y1="215.689" x2="805.7543" y2="259.9274">
				<stop  offset="0" style="stop-color:#FFE2C4"/>
				<stop  offset="1" style="stop-color:#FFB870"/>
			</linearGradient>
			<path fill="url(#SVGID_7_)" d="M766.79,243.889c-0.908-14.817-1.123-36.02-1.184-42.28c0-0.001,0-0.002,0-0.002
				c0.143-1.917,2.577-8.108,3.195-10.417c0.25-1.017-7.143-4.511-7.143-4.511s-1.387-10.161-1.602-11.814
				c-0.213-1.654-2.116-1.294-2.324,3.184c-0.208,4.48,0.426,11.131,0.557,12.612c0.133,1.481-0.508,2.248-0.508,2.248
				s-0.657-3.81-0.201-5.435c0.45-1.622-1.649-1.739-2.539,1.342c-0.894,3.08-0.398,4.759,0.651,8.219
				c0.429,1.408,0.809,3.358,1.071,5.163c0.16,1.829,0.442,5.08,0.616,7.44c0.457,6.197,0.5,5.652-0.256,22.391
				c-0.103,2.26,1.556,19.486,2.015,23.251l-3.316-7.832c3.316,27.002,11.815,46.699,11.815,46.699l10.112-3.418
				C777.751,290.729,770.175,257.55,766.79,243.889z"/>
			<path fill="#FF88A2" d="M759.14,269.203c2.757,15.177,5.454,24.945,5.454,24.945l13.157-3.418c0,0-2.047-12.292-4.436-25.411
				C768.591,267.305,763.867,267.957,759.14,269.203z"/>
		</g>
		<g>
			<polygon fill="#DFECF2" points="647.953,325.448 705.323,348.694 728.741,321.968 676.885,298.79 			"/>
			<path fill="#2B2B2B" d="M716.139,365.283c0,0-0.715,6.453-1.534,8.197c-0.817,1.739-2.683,4.596-9.013,0.61
				c-6.325-3.984-15.258-11.367-15.67-15.257c-0.407-3.89,4.814-3.583,10.651,1.436c3.483,2.862,7.579,1.332,7.579,1.332
				L716.139,365.283z"/>
			<g>
				<path fill="#2B2B2B" d="M696.423,420.325c0,0,2.03,6.571,1.888,8.656c-0.142,2.089-0.945,5.771-9.649,5.094
					c-8.709-0.683-21.764-3.34-23.914-6.885c-2.147-3.539,3.733-5.853,12.353-3.928c5.085,1.022,8.922-2.497,8.922-2.497
					L696.423,420.325z"/>
				<path fill="#1067BF" d="M740.05,364.421c0,0-58.141-32.074-62.191-17.2c-4.055,14.869,5.87,74.368,5.87,74.368
					s7.87,3.972,14.562-0.374c-0.754-23.984-2.232-52.061-2.232-52.061s23.129,23.317,43.692,22.384
					c20.568-0.929,46.215-19.722,31.536-43.513C753.921,346.737,740.05,364.421,740.05,364.421z"/>
			</g>
			<g>
				<path fill="#F7FFFF" d="M753.445,285.552c0,0-12.56,4.404-17.184,16.303c-4.626,11.896-9.948,36.689-9.948,36.689l-1.583,8.396
					c0,0-5.104,38.128,41.454,28.163c18.792-4.023,12.095-13.701,12.535-16.782c0.438-3.084-1.756-12.973,0.076-26.193
					c1.824-13.213,6.117-57.588-17.963-53.842C749.157,282.026,753.445,285.552,753.445,285.552z"/>
				<g>
					
						<linearGradient id="SVGID_8_" gradientUnits="userSpaceOnUse" x1="738.1318" y1="342.3984" x2="764.8545" y2="342.3984" gradientTransform="matrix(0.9245 -0.3811 0.3811 0.9245 -81.7569 241.0077)">
						<stop  offset="0" style="stop-color:#FFE2C4"/>
						<stop  offset="1" style="stop-color:#FFB870"/>
					</linearGradient>
					<path fill="url(#SVGID_8_)" d="M733.47,256.082c0,0-0.054,0.107-0.144,0.31c-0.477,1.057-1.9,4.625-1.204,7.844
						c0.833,3.837-3.107,5.459-3.107,5.459s-1.008,1.023,0.848,1.618c1.85,0.59,2.733,1.083,2.733,1.083s1.507,7.307,2.223,8.51
						c0.706,1.207,4.056,1.003,6.85,1.033c2.793,0.024,5.12,4.633,5.385,7.096c8.127-1.852,14.546-8.887,14.546-8.887l-2.643-6.411
						C758.956,273.736,748.967,245.088,733.47,256.082z"/>
					<path fill="#333333" d="M742.253,271.668c0,0-5.07-8.124-3.725-12.531c1.346-4.414-5.596-1.779-5.596-1.779
						s-6.393-5.385-4.487-10.883c1.244,1.203,3.222,0.814,3.222,0.814l-1.274-2.576c0,0,6.425,0.774,8.316,0.425
						c-1.669-0.92-2.64-2.766-2.64-2.766s6.96,1.091,10.472,1.145c3.511,0.051,11.591-0.602,13.983,6.228
						c4.288,5.732,6.648,21.893-0.475,26.543c-4.241,3.033-6.785,1.832-6.785,1.832s-3.095-7.508-3.549-10.425
						c-0.454-2.919-7.049-4.375-5.853,1.13c0.692,2.712,0.437,4.315,0.437,4.315L742.253,271.668z"/>
				</g>
			</g>
			
				<linearGradient id="SVGID_9_" gradientUnits="userSpaceOnUse" x1="635.626" y1="389.5986" x2="706.7568" y2="389.5986" gradientTransform="matrix(0.7703 -0.6376 0.6376 0.7703 -50.6212 465.1223)">
				<stop  offset="0" style="stop-color:#FFE2C4"/>
				<stop  offset="1" style="stop-color:#FFB870"/>
			</linearGradient>
			<path fill="url(#SVGID_9_)" d="M733.69,327.06c0,0-9.024,20.984-9.536,23.986c-6.121-2.257-32.561-8.542-38.75-9.678
				c-0.03-0.057-0.058-0.095-0.058-0.095s-2.369-3.635-4.444-5.368c-2.081-1.739-2.241-3.578-2.336-4.734
				c-0.095-1.158-2.607-2.409-2.765,0.681c-0.157,3.096,1.346,5.349,1.346,5.349l-10.103-3.859c0,0,2.585,9.705,15.544,14.711
				c0,0.021-0.009,0.063-0.009,0.063s17.643,8.47,30.14,12.647c12.501,4.179,20.938,7.382,25.603-0.284
				c4.663-7.662,14.017-33.63,14.017-33.63L733.69,327.06z"/>
			<path fill="#EDF4F4" d="M728.741,335.706c0,0,6.35-30.956,9.233-35.674c2.881-4.717,14.93-6.069,19.058,3.97
				c4.124,10.034-6.478,37.906-6.478,37.906L728.741,335.706z"/>
		</g>
	</g>
	<g>
		<polygon fill="#55C3FE" points="634.762,412.672 634.762,477.394 642.677,494.447 672.22,499.02 693.848,486.532 693.848,421.812 
					"/>
		<polygon fill="#098EB2" points="658.62,416.363 634.762,412.672 634.762,477.394 642.677,494.447 658.62,496.915 		"/>
		<polygon fill="#179ECC" points="642.677,429.729 642.677,494.447 672.22,499.02 672.22,434.301 		"/>
		<polygon fill="#97DFFF" points="656.388,400.187 685.932,404.756 693.848,421.812 672.22,434.301 642.677,429.729 
			634.762,412.672 		"/>
	</g>
	<g>
		<path fill="#333333" d="M521.758,375.456c0,0-13.646-4.094-21.683,0s0.758,10.311,20.318,13.95
			C512.89,386.268,513.722,375.608,521.758,375.456z"/>
		<path fill="#1FB276" d="M511.347,384.776c0,0,5.629,8.632,29.611,3.98c4.672-1.033,3.091-4.852,3.326-7.076
			c0.234-2.226,2.846-16.455-14.944-16.577C511.549,364.979,509.715,378.371,511.347,384.776z"/>
	</g>
	<g>
		<path opacity="0.15" fill="#050505" d="M994.231,257.725c0,0-11.317,5.859-9.317,30.526c-16.5,11.627-18.017,25.975-18.017,66.259
			c3.337,23.304,26.943,47.868,35.61,52.417c8.666,4.549,10.6,1.819,10.6,1.819s-2.957,9.4,4.53,11.222
			c7.487,1.818,4.53-10.914,4.77-12.132s14.009-16.679,27.468-22.441c13.459-5.762,24.889-15.663,16.277-22.988
			c-8.612-7.325-33.683-15.246-40.54-28.273C1018.756,321.104,994.231,257.725,994.231,257.725z"/>
		<g>
			<path fill="#FC88A1" d="M1027.475,391.681c0,0-4.935,10.514-2.104,22.038c-3.64,2.828-10.109-0.401-10.313-4.245
				c-0.2-3.843,0-15.77,0-15.77L1027.475,391.681z"/>
			<linearGradient id="SVGID_10_" gradientUnits="userSpaceOnUse" x1="1024.2686" y1="372.0518" x2="1074.4531" y2="372.0518">
				<stop  offset="0" style="stop-color:#FFB870"/>
				<stop  offset="1" style="stop-color:#FFE2C4"/>
			</linearGradient>
			<path fill="url(#SVGID_10_)" d="M1040.98,356.704l13.934,2.225c0,0,0.046,1.281-19.415,21.202
				c-12.99,9.204-11.14,17.902-11.14,17.902s25.675-13.631,41.849-28.794c16.175-15.163,4.6-22.557-1.439-21.791
				s-22.962-1.377-22.962-1.377L1040.98,356.704z"/>
			<linearGradient id="SVGID_11_" gradientUnits="userSpaceOnUse" x1="996.0947" y1="377.5811" x2="1073.9912" y2="377.5811">
				<stop  offset="0" style="stop-color:#FFB870"/>
				<stop  offset="1" style="stop-color:#FFE2C4"/>
			</linearGradient>
			<path fill="url(#SVGID_11_)" d="M996.095,381.37c0,0,7.186,17.588,13.58,20.924c6.395,3.337,20.61-6.67,29.727-19.408
				c9.117-12.736,13.938-22.849,19.564-21.735c5.627,1.114,15.025-2.524,15.025-2.524s-0.554-6.975-9.223-6.369
				c-8.67,0.607-20.647,8.812-20.647,8.812s-17.573,9.552-22.29,15.16s-2.729,5.292-2.729,5.292l-6.66-11.338L996.095,381.37z"/>
			<path fill="#FC88A1" d="M1041.509,361.776c0,0,11.155-1.914,9.607,4.251c6.246-1.709,18.366-4.128,21.26-5.201
				c2.89-1.073,2.305-8.418-11.593-6.331c-13.896,2.09-16.525-0.104-17.568,0.25
				C1042.173,355.096,1040.205,360.824,1041.509,361.776z"/>
			<g>
				<g>
					<g>
						<path fill="#E2E2E2" d="M1054.984,345.214c0.731-0.423,1.264-1.02,1.648-1.714l-3.434,1.919
							C1054.196,345.332,1054.912,345.254,1054.984,345.214z"/>
						<g>
							<linearGradient id="SVGID_12_" gradientUnits="userSpaceOnUse" x1="1018.0186" y1="304.0112" x2="1060.7832" y2="304.0112">
								<stop  offset="0" style="stop-color:#FFB870"/>
								<stop  offset="1" style="stop-color:#FFE2C4"/>
							</linearGradient>
							<path fill="url(#SVGID_12_)" d="M1022.772,278.792c0,0-0.136-1.376-3.858,6.876c-3.718,8.253,5.213,34.613,7.333,37.507
								c2.118,2.893,28.689,11.031,34.536,2.01c-3.65-1.874-0.128-4.564-0.846-8.783c-10.854,3.797-26.492-2.744-29.81-5.496
								C1024.599,306.321,1032.79,290.208,1022.772,278.792z"/>
							<g>
								<g>
									<path fill="#112F5B" d="M1058.966,341.733c-8.629-12.167-27.982-6.814-27.982-6.814l-35.003,0.38
										c0,0,0.299,18.232,16.409,22.201c13.632,3.355,29.175,1.766,33.248,3.65
										C1045.771,353.657,1051.769,338.489,1058.966,341.733z"/>
									<g>
										<path fill="#164072" d="M1018.646,378.337c-0.736-8.036-1.677-15.938,0.287-19.588c1.68-3.123-0.915-14.153-0.915-14.153
											l-37.987,1.476c0,0-3.899,4.121,1.062,19.956c1.012,3.229,15.838,25.854,19.056,27.775
											C998.97,386.54,1009.741,376.262,1018.646,378.337z"/>
									</g>
								</g>
								<path fill="#FFA9B8" d="M1033.255,336.435c0,0,1.734-54.479-14.881-60.842c-16.622-6.363-31.847,8.78-38.343,23.449
									c-6.492,14.665-4.193,46.378-4.251,53.178C998.58,367.908,1033.9,343.968,1033.255,336.435z"/>
								<g>
									
										<linearGradient id="SVGID_13_" gradientUnits="userSpaceOnUse" x1="30.1055" y1="202.1978" x2="3.2197" y2="202.1978" gradientTransform="matrix(-1.088 -0.1698 -0.2011 1.2882 1068.2019 10.5795)">
										<stop  offset="0" style="stop-color:#FFE2C4"/>
										<stop  offset="1" style="stop-color:#FFB870"/>
									</linearGradient>
									<path fill="url(#SVGID_13_)" d="M1023.053,251.308c0,0,4.147,6.641,0.433,21.053c-3.02,11.676-3.378,14.964-8.251,15.455
										c-4.877,0.498-15.39-2.805-16.83-12.054c-1.449-0.311-5.557-5.868-3.215-10.291c2.346-4.421,3.987,0.412,3.987,0.412
										s-0.093-9.637,6.716-13.149C1012.71,249.22,1023.053,251.308,1023.053,251.308z"/>
									<path fill="#70380F" d="M1007.045,262.887c0.021-0.56,5.194,6.824,13.509,4.44c-2.854-0.867-3.519-2.88-3.519-2.88
										s2.787,3.712,7.563,2.458c-2.039-0.843-3.021-1.751-3.021-1.751s3.169,1.669,6.206,0.461
										c-1.916-0.827-1.629-2.088-1.629-2.088s1.689,1.694,4.983-1.178c-1.339-0.169-1.206-6.313-6.039-10.738
										c-4.834-4.418-9.864-8.807-16.336-7.716c1.585-1.646,1.353-2.029,3.639-1.662c-2.587-1.447-8.269-0.325-9.882,2.066
										c-5.032-1.93-11.282,5.709-8.154,24.033c0.049-0.46,0.479-3.442,2.26-4.004c1.776-0.564,3.272,2.929,2.864,3.811
										c-0.398,0.886-0.595,6.112-0.595,6.112l2.296,1.203c0,0-0.713-4.544,0.922-5.913
										C1003.753,268.174,1006.732,269.868,1007.045,262.887z"/>
								</g>
							</g>
							<g>
								<g>
									<polygon fill="#FFFFFF" points="1062.635,303.962 1052.789,317.175 1020.976,309.762 1022.802,350.883 1051.737,350.528 
										1061.269,338.932 									"/>
									<polygon fill="#E6F7FF" points="1062.635,298.403 1052.789,317.175 1051.737,350.528 1061.269,338.932 									"/>
								</g>
								
									<linearGradient id="SVGID_14_" gradientUnits="userSpaceOnUse" x1="-108.1201" y1="324.0605" x2="-114.7802" y2="325.1001" gradientTransform="matrix(-1 0 0 1 950.0186 0)">
									<stop  offset="0" style="stop-color:#FFB870"/>
									<stop  offset="1" style="stop-color:#FFE2C4"/>
								</linearGradient>
								<path fill="url(#SVGID_14_)" d="M1062.049,319.046c0,0-2.189,4.477-3.545,4.99c-1.353,0.512-0.304,7.964,3.85,5.573
									C1066.513,327.221,1064.554,319.286,1062.049,319.046z"/>
							</g>
							<linearGradient id="SVGID_15_" gradientUnits="userSpaceOnUse" x1="974.2529" y1="316.1333" x2="1035.4971" y2="316.1333">
								<stop  offset="0" style="stop-color:#FFB870"/>
								<stop  offset="1" style="stop-color:#FFE2C4"/>
							</linearGradient>
							<path fill="url(#SVGID_15_)" d="M1034.75,332.038c-2.313-0.161-4.94,0.402-9.006,0.474c-4.064,0.077-3.913-2.218-4.072-5.495
								c-1.286,0.949-2.061,3.51-4.137,5.012c-2.075,1.507-3.057,0-3.057,0l-0.433,0.329c-14.72-2.597-25.121-6.245-27.453-9.745
								c-2.389-3.59,4.168-14.423,4.738-24.209c0,0,1.307-12.271-6.569-7.81c-7.879,4.46-10.509,35.901-10.509,39.49
								c0,3.582,26.402,8.564,40.205,9.825c2.334,1.345,5.164,2.567,7.954,2.74C1034.308,342.418,1037.06,332.199,1034.75,332.038z"
								/>
							<path fill="#FC88A1" d="M993.341,297.331c0,0-0.703-11.199-8.579-6.737c-4.041,2.287-8.204,14.351-11.305,22.178
								c4.611,3.466,9.55,5.261,14.774,6.274C990.166,315.932,994.251,307.665,993.341,297.331z"/>
						</g>
					</g>
				</g>
			</g>
		</g>
	</g>
	<g>
		<path opacity="0.15" fill="#050505" d="M932.064,401.589c-36.434-21.036-95.505-21.034-131.941,0
			c-20.505,11.839-29.47,27.819-26.893,43.28c-1.907,12.613,3.808,25.536,17.252,36.247l-4.31,2.462
			c-1.104-0.969-2.252-1.827-3.447-2.518c-3.953-2.286-7.503-2.378-9.99-0.71l-0.028-0.033L653.59,548.313
			c-0.027,0.018-0.06,0.031-0.088,0.05l-0.109,0.062l0.005,0.01c-2.376,1.46-3.848,4.466-3.848,8.724
			c0,8.689,6.102,19.257,13.628,23.603c4.389,2.534,8.283,2.375,10.775,0.094l116.11-66.576c0.545-0.363,2.899-1.609,3.961-2.896
			l1.098-1.613c0.68-1.48,1.231-2.947,1.231-5.106c0-2.728-0.602-5.637-1.658-8.481l8.84-5.068c0.191-0.126,0.917-0.525,1.381-0.966
			c36.652,18.443,92.255,17.648,127.15-2.502c20.307-11.724,29.234-27.506,26.902-42.826
			C961.519,429.377,952.55,413.418,932.064,401.589z M924.972,473.669c-32.519,18.772-85.235,18.772-117.751,0
			c-9.462-5.463-16.15-11.92-20.107-18.783c-6.565-15.736,0.784-33.012,22.061-45.296c32.516-18.774,85.229-18.771,117.744,0.002
			c9.46,5.462,16.148,11.914,20.103,18.776C953.593,444.104,946.246,461.385,924.972,473.669z"/>
		<g>
			<image overflow="visible" width="188" height="109" xlink:href="DE8AA208.png"  transform="matrix(1 0 0 1 775.8184 385.0908)">
			</image>
			<g>
				<g>
					<g>
						<path fill="#55C3FE" d="M802.075,398.262c-36.434,21.037-35.585,51.272,0.915,72.198
							c18.297,10.487,80.423,24.206,116.857,3.17c36.435-21.037,50.607-54.328,14.168-75.366
							C897.583,377.226,838.509,377.228,802.075,398.262z M809.174,402.361c32.516-18.773,85.229-18.771,117.744,0.003
							c32.515,18.771,32.515,49.207,0.005,67.98c-32.52,18.77-85.236,18.77-117.749,0
							C776.656,451.571,776.658,421.135,809.174,402.361z"/>
						<path fill="#55C3FE" d="M780.625,420.734v26.265h1.745c2.188,8.896,8.626,14.262,21.596,21.752
							c32.515,18.771,90.441,18.771,122.957,0c13.191-7.618,19.486-12.547,21.877-21.752h1.948v-27.343
							c16.011,19.921,9.779,44.329-18.682,60.761c-36.436,21.038-95.507,21.038-131.943,0
							C772.171,464.28,765.689,440.456,780.625,420.734z"/>
						<path fill="#C5F0FF" d="M800.123,394.36c-36.434,21.036-36.434,55.141,0,76.18c36.437,21.034,95.508,21.034,131.943,0
							c36.436-21.039,36.436-55.141-0.002-76.18C895.631,373.324,836.56,373.326,800.123,394.36z M807.221,398.457
							c32.516-18.77,85.232-18.77,117.746,0.002c32.514,18.773,32.514,49.209,0.005,67.981c-32.519,18.771-85.235,18.771-117.751,0
							C774.706,447.668,774.706,417.232,807.221,398.457z"/>
					</g>
				</g>
				<g>
					<path fill="#098EB2" d="M749.177,497.471l47.453-27.093l0.013,0.015c0.99-0.663,2.4-0.628,3.974,0.282
						c2.994,1.729,5.421,5.933,5.421,9.387c0,0.859-0.221,1.445-0.488,2.033l-0.44,0.643c-0.422,0.508-1.355,1.005-1.573,1.147
						l-46.285,26.54L749.177,497.471z"/>
					<g>
						
							<linearGradient id="SVGID_16_" gradientUnits="userSpaceOnUse" x1="793.1855" y1="536.7666" x2="811.4968" y2="504.4436" gradientTransform="matrix(-1 0 0 1 1529.7539 0)">
							<stop  offset="0" style="stop-color:#F42750"/>
							<stop  offset="0.1319" style="stop-color:#F52D55"/>
							<stop  offset="0.3013" style="stop-color:#F83D64"/>
							<stop  offset="0.4904" style="stop-color:#FC577D"/>
							<stop  offset="0.5806" style="stop-color:#FF668B"/>
							<stop  offset="0.7291" style="stop-color:#FA4E74"/>
							<stop  offset="0.8902" style="stop-color:#F63A61"/>
							<stop  offset="1" style="stop-color:#F4335A"/>
						</linearGradient>
						<path fill="url(#SVGID_16_)" d="M653.393,541.196l119.314-68.107l0.028,0.033c2.487-1.669,6.037-1.575,9.99,0.711
							c7.527,4.343,13.628,14.911,13.628,23.603c0,2.157-0.552,3.624-1.231,5.104l-1.098,1.613
							c-1.062,1.288-3.416,2.534-3.961,2.896l-116.375,66.729L653.393,541.196z"/>
						<path fill="#FF668B" d="M649.55,549.93c0,8.689,6.102,19.257,13.628,23.603c7.525,4.344,13.627,0.823,13.627-7.868
							s-6.102-19.255-13.627-23.603C655.651,537.716,649.55,541.238,649.55,549.93z"/>
					</g>
				</g>
			</g>
		</g>
	</g>
	<g>
		<polygon fill="#FFFFFF" points="200.431,-92.179 405.083,-12.077 316.844,-1.567 		"/>
		<polygon fill="#97DFFF" points="318.277,-1.74 304.615,36.452 200.431,-92.179 		"/>
		<polygon fill="#55C3FE" points="289.013,7.046 304.615,36.452 200.431,-92.179 		"/>
		<polygon fill="#FFFFFF" points="200.431,-92.179 227.982,42.746 289.013,7.046 		"/>
	</g>
	<g>
		<g>
			<g>
				<g>
					<path fill="#FF5A76" d="M403.704,542.62L283.45,452.166c-6.104-3.527-16-3.527-22.108,0l-165.44,95.518
						c-6.104,3.524-6.104,9.239,0,12.765l120.252,90.457L403.704,542.62z"/>
					<path opacity="0.15" fill="#050505" d="M261.342,452.166L72.531,572.395c-6.104,3.524-6.104,9.239,0,12.765l143.622,65.746"/>
					<path fill="#F74169" d="M403.704,542.62L283.45,452.166c-6.104-3.527-16-3.527-22.108,0l-165.44,95.518
						c-6.104,3.524-6.104,9.239,0,12.765l120.252,90.457L403.704,542.62z"/>
					<path opacity="0.15" fill="#050505" d="M403.704,542.62l158.828,86.694c6.105,3.522,6.105,9.239,0,12.763L397.09,737.599
						c-6.104,3.523-16.003,3.523-22.109,0l-158.828-86.693L403.704,542.62z"/>
					<path fill="#FF5A76" d="M403.704,542.62l156.676,69.43c6.106,3.523,6.106,9.24,0,12.763l-165.441,95.522
						c-6.104,3.522-16.002,3.522-22.109,0l-156.676-69.43L403.704,542.62z"/>
				</g>
				<g>
					<path fill="#FF5A76" d="M403.704,537.024L283.45,446.567c-6.104-3.524-16-3.524-22.108-0.002l-165.44,95.52
						c-6.104,3.523-6.104,9.24,0,12.764l120.252,90.46L403.704,537.024z"/>
					<path fill="#FF7B97" d="M403.704,537.024l156.676,69.43c6.106,3.523,6.106,9.24,0,12.763l-165.441,95.517
						c-6.104,3.528-16.002,3.528-22.109,0l-156.676-69.425L403.704,537.024z"/>
				</g>
				<g>
					<path fill="#FF5A76" d="M403.704,537.024L283.45,446.567c-6.104-3.524-16-3.524-22.108-0.002l-165.44,95.52
						c-6.104,3.523-6.104,9.24,0,12.764l120.252,90.46L403.704,537.024z"/>
					<path fill="#FF7B97" d="M403.704,537.024l156.676,69.43c6.106,3.523,6.106,9.24,0,12.763l-165.441,95.517
						c-6.104,3.528-16.002,3.528-22.109,0l-156.676-69.425L403.704,537.024z"/>
				</g>
				<g>
					<path fill="#E8EDEF" d="M403.704,537.024l-101.1-98.211c-5.79-3.346-15.43-3.194-21.537,0.328l-165.44,95.519
						c-6.107,3.527-6.362,9.093-0.572,12.438l101.099,98.21L403.704,537.024z"/>
					<path fill="#D5D9DB" d="M403.704,537.024l149.531,42.527c5.792,3.345,5.539,8.91-0.568,12.438l-165.44,95.517
						c-6.106,3.528-15.751,3.67-21.542,0.33l-149.532-42.527L403.704,537.024z"/>
				</g>
				<g>
					<path fill="#FFFFFF" d="M403.704,537.024l-81.262-98.511c-5.358-3.1-14.651-2.749-20.756,0.775l-165.44,95.518
						c-6.107,3.527-6.711,8.891-1.354,11.983l81.261,98.519L403.704,537.024z"/>
					<path fill="#F2F4F4" d="M403.704,537.024l139.742,15.67c5.357,3.092,4.757,8.46-1.348,11.984l-165.441,95.521
						c-6.107,3.526-15.402,3.872-20.761,0.777l-139.742-15.668L403.704,537.024z"/>
				</g>
			</g>
			<polygon fill="#1B2E9B" points="193.784,667.948 194.89,661.759 185.748,660.822 404.517,535.962 419.245,538.769 			"/>
		</g>
		<g>
			<polygon opacity="0.15" fill="#050505" points="531.91,742.55 539.721,761.208 485.607,753.2 401.247,716.368 401.247,646 
				304.423,635.392 333.131,619.013 427.437,630.881 427.437,701.246 			"/>
			<g>
				<path fill="#3ECC8E" d="M525.179,724.173c2.327,2.322,16.172,33.555,14.542,37.035c-1.416,2.962-34.727-12.179-37.059-14.5
					L327.309,571.513c-2.329-2.319-2.328-6.086-0.006-8.41l14.112-14.124c2.315-2.321,6.078-2.324,8.409-0.004L525.179,724.173z"/>
				<path fill="#58E0A9" d="M341.415,548.979l-9.535,9.542l202.363,202.156c3.042,0.912,5.141,1.225,5.477,0.531
					c0.948-2.023-3.312-13.387-7.514-23.023L342.178,548.34C341.911,548.529,341.653,548.735,341.415,548.979z"/>
				<path fill="#333333" d="M523.985,756.948c7.898,3.218,15.086,5.599,15.735,4.26c0.711-1.542-1.572-8.475-4.558-15.944
					c-0.583,0.085-1.161,0.22-1.739,0.476C528.751,748.076,523.634,751.822,523.985,756.948z"/>
				<linearGradient id="SVGID_17_" gradientUnits="userSpaceOnUse" x1="502.3906" y1="740.29" x2="535.1631" y2="740.29">
					<stop  offset="0" style="stop-color:#FFE2C4"/>
					<stop  offset="1" style="stop-color:#FFB870"/>
				</linearGradient>
				<path fill="url(#SVGID_17_)" d="M525.468,731.394c-4.241-2.207-7.733-3.695-9.766-2.173c-2.293,1.712-0.711,7.8,1.635,12.136
					c-2.474-2.188-8.264-4.487-12.391-1.319c-2.375,1.827-2.934,6.017-2.332,6.618l0.047,0.053
					c1.274,1.269,11.813,6.364,21.323,10.24c-0.352-5.126,4.766-8.872,9.438-11.209c0.578-0.256,1.156-0.391,1.739-0.476
					c-3.786-9.465-8.686-19.797-9.984-21.091l-0.535-0.54C522.303,725.13,523.724,728.373,525.468,731.394z"/>
				<path fill="#EFB57B" d="M506.676,739.064c-0.593,0.24-1.185,0.551-1.729,0.973c-2.375,1.827-2.934,6.017-2.332,6.618
					l0.047,0.053c1.274,1.269,11.813,6.364,21.323,10.24c-0.124-1.853,0.469-3.521,1.492-5.011L506.676,739.064z"/>
				<path fill="#FF5A76" d="M372.934,572.072l-23.11-23.098c-2.331-2.32-6.094-2.317-8.409,0.004l-14.112,14.124
					c-2.322,2.324-2.323,6.091,0.006,8.41l23.109,23.093L372.934,572.072z"/>
				<polygon fill="#F4F4F4" points="341.638,585.839 350.418,594.605 372.934,572.072 364.158,563.299 				"/>
			</g>
		</g>
	</g>
	<g>
		<polygon fill="#FFFFFF" points="469.661,-72.299 604.462,-19.538 546.341,-12.615 		"/>
		<polygon fill="#97DFFF" points="547.284,-12.728 538.286,12.428 469.661,-72.299 		"/>
		<polygon fill="#55C3FE" points="528.008,-6.941 538.286,12.428 469.661,-72.299 		"/>
		<polygon fill="#FFFFFF" points="469.661,-72.299 487.81,16.573 528.008,-6.941 		"/>
	</g>
</g>
</svg>
